<mxfile host="app.diagrams.net" modified="2020-12-10T19:34:47.360Z" agent="5.0 (Windows NT 10.0; Win64; x64) AppleWebKit/537.36 (KHTML, like Gecko) Chrome/87.0.4280.88 Safari/537.36" etag="-wD1-uvAZsTqOj2C1NVP" version="14.0.0" type="github" pages="2">
  <diagram id="gzxP89vHw7BiSG-aFXo5" name="ETN Design">
    <mxGraphModel dx="2062" dy="1065" grid="1" gridSize="10" guides="1" tooltips="1" connect="1" arrows="1" fold="1" page="1" pageScale="1" pageWidth="1700" pageHeight="1100" math="0" shadow="0">
      <root>
        <mxCell id="tmwGK40KlvC0fED2A8c0-0" />
        <mxCell id="tmwGK40KlvC0fED2A8c0-1" parent="tmwGK40KlvC0fED2A8c0-0" />
        <mxCell id="S1wnt_isAk2FvLNjlqy5-0" value="" style="group;html=1;" parent="tmwGK40KlvC0fED2A8c0-1" vertex="1">
          <mxGeometry x="729" y="180" width="830" height="651" as="geometry" />
        </mxCell>
        <mxCell id="S1wnt_isAk2FvLNjlqy5-1" value="" style="shape=stencil(nZBLDoAgDERP0z3SIyjew0SURgSD+Lu9kMZoXLhwN9O+tukAlrNpJg1SzDH4QW/URgNYgZTkjA4UkwJUgGXng+6DX1zLfmoymdXo17xh5zmRJ6Q42BWCfc2oJfdAr+Yv+AP9Cb7OJ3H/2JG1HNGz/84klThPVCc=);whiteSpace=wrap;overflow=block;html=1;fontSize=11;strokeOpacity=0;fillOpacity=100;fillColor=#3b9ece;whiteSpace=wrap;fontSize=11;spacing=0;rounded=1;absoluteArcSize=1;arcSize=1;" parent="S1wnt_isAk2FvLNjlqy5-0" vertex="1">
          <mxGeometry width="830" height="651" relative="1" as="geometry" />
        </mxCell>
        <mxCell id="S1wnt_isAk2FvLNjlqy5-2" value="" style="shape=stencil(UzV2Ls5ILEhVNTIoLinKz04tz0wpyVA1dlE1MsrMy0gtyiwBslSNXVWNndPyi1LTi/JL81Ig/IJEkEoQKze/DGRCBUSfoZ45SI+RQSWEb2aiZwEWcIOozsnMQ1ZtqWdKiXJDPRM8qtGcQpJidIcAGQgvp2Xm5EBCDFkePYiAQpDgNXYFAA==);whiteSpace=wrap;overflow=block;html=1;fontSize=11;strokeOpacity=0;fillOpacity=0;fillColor=#000000;whiteSpace=wrap;fontSize=11;spacing=0;rounded=1;absoluteArcSize=1;arcSize=1;" parent="S1wnt_isAk2FvLNjlqy5-0" vertex="1">
          <mxGeometry width="830" height="651" relative="1" as="geometry" />
        </mxCell>
        <mxCell id="S1wnt_isAk2FvLNjlqy5-3" value="Edge Transport Node" style="strokeColor=none;fillColor=none;overflow=visible;whiteSpace=wrap;fontSize=12;fontFamily=Arimo;fontColor=#ffffff;align=left;whiteSpace=wrap;spacing=0;strokeOpacity=0;fillOpacity=0;rounded=1;absoluteArcSize=1;arcSize=1;whiteSpace=wrap;" parent="S1wnt_isAk2FvLNjlqy5-0" vertex="1">
          <mxGeometry x="0.017" y="0.017" width="147.73999999999998" height="410.781" relative="1" as="geometry" />
        </mxCell>
        <mxCell id="S1wnt_isAk2FvLNjlqy5-4" value="" style="group;html=1;" parent="tmwGK40KlvC0fED2A8c0-1" vertex="1">
          <mxGeometry x="200" y="372" width="500" height="322" as="geometry" />
        </mxCell>
        <mxCell id="S1wnt_isAk2FvLNjlqy5-5" value="" style="shape=stencil(nZBLDoAgDERP0z3SIyjew0SURgSD+Lu9kMZoXLhwN9O+tukAlrNpJg1SzDH4QW/URgNYgZTkjA4UkwJUgGXng+6DX1zLfmoymdXo17xh5zmRJ6Q42BWCfc2oJfdAr+Yv+AP9Cb7OJ3H/2JG1HNGz/84klThPVCc=);whiteSpace=wrap;fontSize=11;fillColor=#ffc000;gradientColor=#c00000;whiteSpace=wrap;align=right;spacing=0;verticalAlign=bottom;rounded=1;absoluteArcSize=1;arcSize=48;" parent="S1wnt_isAk2FvLNjlqy5-4" vertex="1">
          <mxGeometry width="500" height="322" relative="1" as="geometry" />
        </mxCell>
        <mxCell id="S1wnt_isAk2FvLNjlqy5-6" value="&lt;div style=&quot;display: flex; justify-content: center; text-align: center; align-items: baseline; font-size: 0; line-height: 1;&quot;&gt;&lt;span style=&quot;font-size:11px;&quot;&gt;&lt;span style=&quot;font-size:10px;color:#000000;font-weight: bold;font-family: Arimo;&quot;&gt;General Workload Domain vDS&lt;/span&gt;&lt;/span&gt;&lt;/div&gt;" style="strokeColor=none;fillColor=none;overflow=visible;whiteSpace=wrap;html=1;fontSize=11;whiteSpace=wrap;fontSize=11;align=right;spacing=0;verticalAlign=bottom;rounded=1;absoluteArcSize=1;arcSize=48;whiteSpace=wrap;fontSize=11;" parent="S1wnt_isAk2FvLNjlqy5-4" vertex="1">
          <mxGeometry x="0.011" y="0.017" width="489.5" height="311.37399999999997" relative="1" as="geometry" />
        </mxCell>
        <mxCell id="S1wnt_isAk2FvLNjlqy5-7" value="" style="group;html=1;" parent="tmwGK40KlvC0fED2A8c0-1" vertex="1">
          <mxGeometry x="448" y="345" width="232" height="322" as="geometry" />
        </mxCell>
        <mxCell id="S1wnt_isAk2FvLNjlqy5-8" value="" style="shape=stencil(nZBLDoAgDERP0z3SIyjew0SURgSD+Lu9kMZoXLhwN9O+tukAlrNpJg1SzDH4QW/URgNYgZTkjA4UkwJUgGXng+6DX1zLfmoymdXo17xh5zmRJ6Q42BWCfc2oJfdAr+Yv+AP9Cb7OJ3H/2JG1HNGz/84klThPVCc=);whiteSpace=wrap;overflow=block;html=1;fontSize=11;fillOpacity=100;fillColor=#bfbfbf;whiteSpace=wrap;fontSize=11;spacing=0;verticalAlign=top;rounded=1;absoluteArcSize=1;arcSize=24;" parent="S1wnt_isAk2FvLNjlqy5-7" vertex="1">
          <mxGeometry width="232" height="322" relative="1" as="geometry" />
        </mxCell>
        <mxCell id="S1wnt_isAk2FvLNjlqy5-9" value="Uplink4 (VLAN ID ALL)" style="strokeColor=none;fillColor=none;overflow=visible;whiteSpace=wrap;fontSize=10;fontFamily=Arimo;fontColor=#ffffff;fontStyle=1;align=center;whiteSpace=wrap;spacing=0;verticalAlign=top;fillOpacity=100;rounded=1;absoluteArcSize=1;arcSize=24;whiteSpace=wrap;" parent="S1wnt_isAk2FvLNjlqy5-7" vertex="1">
          <mxGeometry x="0.023" y="0.023" width="221.328" height="309.12" relative="1" as="geometry" />
        </mxCell>
        <mxCell id="S1wnt_isAk2FvLNjlqy5-10" value="" style="group;html=1;" parent="tmwGK40KlvC0fED2A8c0-1" vertex="1">
          <mxGeometry x="216" y="345" width="232" height="322" as="geometry" />
        </mxCell>
        <mxCell id="S1wnt_isAk2FvLNjlqy5-11" value="" style="shape=stencil(nZBLDoAgDERP0z3SIyjew0SURgSD+Lu9kMZoXLhwN9O+tukAlrNpJg1SzDH4QW/URgNYgZTkjA4UkwJUgGXng+6DX1zLfmoymdXo17xh5zmRJ6Q42BWCfc2oJfdAr+Yv+AP9Cb7OJ3H/2JG1HNGz/84klThPVCc=);whiteSpace=wrap;fontSize=11;fillOpacity=100;fillColor=#bfbfbf;whiteSpace=wrap;spacing=0;verticalAlign=top;rounded=1;absoluteArcSize=1;arcSize=24;" parent="S1wnt_isAk2FvLNjlqy5-10" vertex="1">
          <mxGeometry width="232" height="322" relative="1" as="geometry" />
        </mxCell>
        <mxCell id="S1wnt_isAk2FvLNjlqy5-12" value="Uplink3 (VLAN ID ALL)" style="strokeColor=none;fillColor=none;overflow=visible;whiteSpace=wrap;fontSize=10;fontFamily=Arimo;fontColor=#ffffff;fontStyle=1;align=center;whiteSpace=wrap;spacing=0;verticalAlign=top;fillOpacity=100;rounded=1;absoluteArcSize=1;arcSize=24;whiteSpace=wrap;" parent="S1wnt_isAk2FvLNjlqy5-10" vertex="1">
          <mxGeometry x="0.023" y="0.023" width="221.328" height="309.12" relative="1" as="geometry" />
        </mxCell>
        <mxCell id="S1wnt_isAk2FvLNjlqy5-13" value="" style="points=[[1,0.527,0]];group;html=1;" parent="tmwGK40KlvC0fED2A8c0-1" vertex="1">
          <mxGeometry x="229" y="382" width="436" height="38" as="geometry" />
        </mxCell>
        <mxCell id="S1wnt_isAk2FvLNjlqy5-14" value="" style="shape=stencil(nZBLDoAgDERP0z3SIyjew0SURgSD+Lu9kMZoXLhwN9O+tukAlrNpJg1SzDH4QW/URgNYgZTkjA4UkwJUgGXng+6DX1zLfmoymdXo17xh5zmRJ6Q42BWCfc2oJfdAr+Yv+AP9Cb7OJ3H/2JG1HNGz/84klThPVCc=);whiteSpace=wrap;fontSize=11;fillColor=#002060;gradientColor=#9c4a09;whiteSpace=wrap;spacing=0;rounded=1;absoluteArcSize=1;arcSize=24;" parent="S1wnt_isAk2FvLNjlqy5-13" vertex="1">
          <mxGeometry width="436" height="38" relative="1" as="geometry" />
        </mxCell>
        <mxCell id="S1wnt_isAk2FvLNjlqy5-15" value="NSX-T Management Networks (VLAN ID 6, Tagged)" style="strokeColor=none;fillColor=none;overflow=visible;whiteSpace=wrap;fontSize=10;fontFamily=Arimo;fontColor=#ffffff;fontStyle=1;align=center;whiteSpace=wrap;spacing=0;rounded=1;absoluteArcSize=1;arcSize=24;whiteSpace=wrap;" parent="S1wnt_isAk2FvLNjlqy5-13" vertex="1">
          <mxGeometry x="0.012" y="0.139" width="425.536" height="27.436" relative="1" as="geometry" />
        </mxCell>
        <mxCell id="S1wnt_isAk2FvLNjlqy5-16" value="" style="points=[[0.999,0.222,0]];group;html=1;" parent="tmwGK40KlvC0fED2A8c0-1" vertex="1">
          <mxGeometry x="228" y="516" width="436" height="38" as="geometry" />
        </mxCell>
        <mxCell id="S1wnt_isAk2FvLNjlqy5-17" value="" style="shape=stencil(nZBLDoAgDERP0z3SIyjew0SURgSD+Lu9kMZoXLhwN9O+tukAlrNpJg1SzDH4QW/URgNYgZTkjA4UkwJUgGXng+6DX1zLfmoymdXo17xh5zmRJ6Q42BWCfc2oJfdAr+Yv+AP9Cb7OJ3H/2JG1HNGz/84klThPVCc=);whiteSpace=wrap;fontSize=11;fillColor=#50632a;gradientColor=#ea700d;whiteSpace=wrap;spacing=0;rounded=1;absoluteArcSize=1;arcSize=24;" parent="S1wnt_isAk2FvLNjlqy5-16" vertex="1">
          <mxGeometry width="436" height="38" relative="1" as="geometry" />
        </mxCell>
        <mxCell id="S1wnt_isAk2FvLNjlqy5-18" value="Edge Uplink (Tag ALL VLANs to VM) Transport Zone Switch 1" style="strokeColor=none;fillColor=none;overflow=visible;whiteSpace=wrap;fontSize=10;fontFamily=Arimo;fontColor=#ffffff;fontStyle=1;align=center;whiteSpace=wrap;spacing=0;rounded=1;absoluteArcSize=1;arcSize=24;whiteSpace=wrap;" parent="S1wnt_isAk2FvLNjlqy5-16" vertex="1">
          <mxGeometry x="0.012" y="0.139" width="425.536" height="27.436" relative="1" as="geometry" />
        </mxCell>
        <mxCell id="S1wnt_isAk2FvLNjlqy5-19" value="" style="points=[[0.998,0.802,0]];group;html=1;" parent="tmwGK40KlvC0fED2A8c0-1" vertex="1">
          <mxGeometry x="228" y="587" width="436" height="38" as="geometry" />
        </mxCell>
        <mxCell id="S1wnt_isAk2FvLNjlqy5-20" value="" style="shape=stencil(nZBLDoAgDERP0z3SIyjew0SURgSD+Lu9kMZoXLhwN9O+tukAlrNpJg1SzDH4QW/URgNYgZTkjA4UkwJUgGXng+6DX1zLfmoymdXo17xh5zmRJ6Q42BWCfc2oJfdAr+Yv+AP9Cb7OJ3H/2JG1HNGz/84klThPVCc=);whiteSpace=wrap;fontSize=11;fillColor=#50632a;gradientColor=#ea700d;whiteSpace=wrap;spacing=0;rounded=1;absoluteArcSize=1;arcSize=24;" parent="S1wnt_isAk2FvLNjlqy5-19" vertex="1">
          <mxGeometry width="436" height="38" relative="1" as="geometry" />
        </mxCell>
        <mxCell id="S1wnt_isAk2FvLNjlqy5-21" value="Edge Uplink (Tag ALL VLANs to VM) Transport Zone Switch 2" style="strokeColor=none;fillColor=none;overflow=visible;whiteSpace=wrap;fontSize=10;fontFamily=Arimo;fontColor=#ffffff;fontStyle=1;align=center;whiteSpace=wrap;spacing=0;rounded=1;absoluteArcSize=1;arcSize=24;whiteSpace=wrap;" parent="S1wnt_isAk2FvLNjlqy5-19" vertex="1">
          <mxGeometry x="0.012" y="0.139" width="425.536" height="27.436" relative="1" as="geometry" />
        </mxCell>
        <UserObject label="" lucidchartObjectId="Kamu0Q85XITSZ" id="S1wnt_isAk2FvLNjlqy5-22">
          <mxCell style="html=1;jettySize=18;whiteSpace=wrap;fontSize=11;rounded=0;startArrow=none;;endArrow=none;;exitX=0.999;exitY=0.222;exitPerimeter=0;entryX=-0.03;entryY=-0.666;entryPerimeter=0;" parent="tmwGK40KlvC0fED2A8c0-1" source="S1wnt_isAk2FvLNjlqy5-16" target="S1wnt_isAk2FvLNjlqy5-27" edge="1">
            <mxGeometry width="100" height="100" relative="1" as="geometry">
              <Array as="points" />
            </mxGeometry>
          </mxCell>
        </UserObject>
        <mxCell id="S1wnt_isAk2FvLNjlqy5-23" value="" style="group;dropTarget=0;" parent="tmwGK40KlvC0fED2A8c0-1" vertex="1">
          <mxGeometry x="779" y="513" width="465" height="242" as="geometry" />
        </mxCell>
        <mxCell id="S1wnt_isAk2FvLNjlqy5-24" value="" style="group;html=1;" parent="S1wnt_isAk2FvLNjlqy5-23" vertex="1">
          <mxGeometry width="465" height="242" as="geometry" />
        </mxCell>
        <mxCell id="S1wnt_isAk2FvLNjlqy5-25" value="" style="shape=stencil(nZBLDoAgDERP0z3SIyjew0SURgSD+Lu9kMZoXLhwN9O+tukAlrNpJg1SzDH4QW/URgNYgZTkjA4UkwJUgGXng+6DX1zLfmoymdXo17xh5zmRJ6Q42BWCfc2oJfdAr+Yv+AP9Cb7OJ3H/2JG1HNGz/84klThPVCc=);whiteSpace=wrap;fontSize=11;fillOpacity=100;fillColor=#bfbfbf;whiteSpace=wrap;align=left;spacing=0;verticalAlign=top;rounded=1;absoluteArcSize=1;arcSize=24;" parent="S1wnt_isAk2FvLNjlqy5-24" vertex="1">
          <mxGeometry width="465" height="242" relative="1" as="geometry" />
        </mxCell>
        <mxCell id="S1wnt_isAk2FvLNjlqy5-26" value="&lt;div style=&quot;display: flex; justify-content: flex-start; text-align: left; align-items: baseline; font-size: 0; line-height: 1;&quot;&gt;&lt;span style=&quot;font-size:11px;&quot;&gt;&lt;span style=&quot;font-size:10px;color:#000000;font-weight: bold;font-family: Arimo;&quot;&gt;Edge Transport Node N-vDS (TBD)&lt;/span&gt;&lt;/span&gt;&lt;/div&gt;" style="strokeColor=none;fillColor=none;overflow=visible;whiteSpace=wrap;html=1;fontSize=11;whiteSpace=wrap;fontSize=11;align=left;spacing=0;verticalAlign=top;fillOpacity=100;rounded=1;absoluteArcSize=1;arcSize=24;whiteSpace=wrap;fontSize=11;" parent="S1wnt_isAk2FvLNjlqy5-24" vertex="1">
          <mxGeometry x="0.011" y="0.031" width="454.305" height="229.17399999999998" relative="1" as="geometry" />
        </mxCell>
        <mxCell id="S1wnt_isAk2FvLNjlqy5-27" value="" style="points=[[-0.03,-0.666,0]];group;html=1;" parent="S1wnt_isAk2FvLNjlqy5-23" vertex="1">
          <mxGeometry x="13" y="37" width="436" height="38" as="geometry" />
        </mxCell>
        <mxCell id="S1wnt_isAk2FvLNjlqy5-28" value="" style="shape=stencil(nZBLDoAgDERP0z3SIyjew0SURgSD+Lu9kMZoXLhwN9O+tukAlrNpJg1SzDH4QW/URgNYgZTkjA4UkwJUgGXng+6DX1zLfmoymdXo17xh5zmRJ6Q42BWCfc2oJfdAr+Yv+AP9Cb7OJ3H/2JG1HNGz/84klThPVCc=);whiteSpace=wrap;fontSize=11;fillColor=#002060;gradientColor=#9c4a09;whiteSpace=wrap;spacing=0;rounded=1;absoluteArcSize=1;arcSize=24;" parent="S1wnt_isAk2FvLNjlqy5-27" vertex="1">
          <mxGeometry width="436" height="38" relative="1" as="geometry" />
        </mxCell>
        <mxCell id="S1wnt_isAk2FvLNjlqy5-29" value="(Edge VTEPs VLAN 201, Tagged)" style="strokeColor=none;fillColor=none;overflow=visible;whiteSpace=wrap;fontSize=10;fontFamily=Arimo;fontColor=#ffffff;fontStyle=1;align=center;whiteSpace=wrap;spacing=0;rounded=1;absoluteArcSize=1;arcSize=24;whiteSpace=wrap;" parent="S1wnt_isAk2FvLNjlqy5-27" vertex="1">
          <mxGeometry x="0.012" y="0.139" width="425.536" height="27.436" relative="1" as="geometry" />
        </mxCell>
        <mxCell id="S1wnt_isAk2FvLNjlqy5-30" value="" style="points=[[-0.027,1.118,0]];group;html=1;" parent="S1wnt_isAk2FvLNjlqy5-23" vertex="1">
          <mxGeometry x="12" y="190" width="436" height="38" as="geometry" />
        </mxCell>
        <mxCell id="S1wnt_isAk2FvLNjlqy5-31" value="" style="shape=stencil(nZBLDoAgDERP0z3SIyjew0SURgSD+Lu9kMZoXLhwN9O+tukAlrNpJg1SzDH4QW/URgNYgZTkjA4UkwJUgGXng+6DX1zLfmoymdXo17xh5zmRJ6Q42BWCfc2oJfdAr+Yv+AP9Cb7OJ3H/2JG1HNGz/84klThPVCc=);whiteSpace=wrap;fontSize=11;fillColor=#c00000;gradientColor=#ffffff;whiteSpace=wrap;spacing=0;rounded=1;absoluteArcSize=1;arcSize=24;" parent="S1wnt_isAk2FvLNjlqy5-30" vertex="1">
          <mxGeometry width="436" height="38" relative="1" as="geometry" />
        </mxCell>
        <mxCell id="S1wnt_isAk2FvLNjlqy5-32" value="Fabric eTenant Networks (VLAN IDs 2500-2999, Tagged)" style="strokeColor=none;fillColor=none;overflow=visible;whiteSpace=wrap;fontSize=10;fontFamily=Arimo;fontColor=#ffffff;fontStyle=1;align=center;whiteSpace=wrap;spacing=0;rounded=1;absoluteArcSize=1;arcSize=24;whiteSpace=wrap;" parent="S1wnt_isAk2FvLNjlqy5-30" vertex="1">
          <mxGeometry x="0.012" y="0.139" width="425.536" height="27.436" relative="1" as="geometry" />
        </mxCell>
        <mxCell id="S1wnt_isAk2FvLNjlqy5-33" value="" style="group;html=1;" parent="S1wnt_isAk2FvLNjlqy5-23" vertex="1">
          <mxGeometry x="12" y="151" width="436" height="38" as="geometry" />
        </mxCell>
        <mxCell id="S1wnt_isAk2FvLNjlqy5-34" value="" style="shape=stencil(nZBLDoAgDERP0z3SIyjew0SURgSD+Lu9kMZoXLhwN9O+tukAlrNpJg1SzDH4QW/URgNYgZTkjA4UkwJUgGXng+6DX1zLfmoymdXo17xh5zmRJ6Q42BWCfc2oJfdAr+Yv+AP9Cb7OJ3H/2JG1HNGz/84klThPVCc=);whiteSpace=wrap;fontSize=11;fillColor=#50632a;gradientColor=#ea700d;whiteSpace=wrap;spacing=0;rounded=1;absoluteArcSize=1;arcSize=24;" parent="S1wnt_isAk2FvLNjlqy5-33" vertex="1">
          <mxGeometry width="436" height="38" relative="1" as="geometry" />
        </mxCell>
        <mxCell id="S1wnt_isAk2FvLNjlqy5-35" value="Virtual Fabric VNIs (VNI ID ALL)" style="strokeColor=none;fillColor=none;overflow=visible;whiteSpace=wrap;fontSize=10;fontFamily=Arimo;fontColor=#ffffff;fontStyle=1;align=center;whiteSpace=wrap;spacing=0;rounded=1;absoluteArcSize=1;arcSize=24;whiteSpace=wrap;" parent="S1wnt_isAk2FvLNjlqy5-33" vertex="1">
          <mxGeometry x="0.012" y="0.139" width="425.536" height="27.436" relative="1" as="geometry" />
        </mxCell>
        <mxCell id="S1wnt_isAk2FvLNjlqy5-36" value="" style="points=[[1.049,3.385,0],[1.049,4.716,0],[1.019,7.601,0],[1.019,6.159,0]];group;html=1;" parent="S1wnt_isAk2FvLNjlqy5-23" vertex="1">
          <mxGeometry x="421" y="5" width="27" height="27" as="geometry" />
        </mxCell>
        <mxCell id="S1wnt_isAk2FvLNjlqy5-37" value="" style="shape=stencil(lVfLctswDPwaXTUk+BLPafIfmcSpNXXtjOK09t9HrkhIXMpQc5PhJXcJLECpMQ8f++f3XUPq4zycfu3+9q/nfWN+NET9cb8b+vP41JjHxjy8nYbdz+H0eXydfr8/35C3p9+nP7cdLtM67Vu6LSJ1TQFq47/A0wQ/9McF3NjWlPDQdvfhFAswmVbfBztqXQG3vvUi3CI83IfbmIQyPKaTryv3cFBy0u6kC7ARjrmZcShQaMu9bUjKEvzlc5jwOi2ISai6alihLpTlcu6IMSlyMQlDrNMwxkvMY3ldxRyB2TImM3dp15nZce4N1yqIzHNOU8SpXG5mzm5iZscnZOYZkyLOlMVZYfbA7HhXqryUmTmyOHME5lD6s2J2XMPM3GWrLLLdAXPHecnMFnij7K+xygZ4Y1Vlwip7VeVaszbDGCsyK3T2uMKXzDqyE2bmUDLrgP5izHrHWpg034V30ozUChr8m3CcBwDfGh/ltImzDVNtZftHz9vnkuCsib6qCFpwAUkR8UwRJ2gkeTzEajxEy6YgjFwr4ayTGIPKV4UGuEMQjTo5MddK+IUgvQuVulRZTZLopCvdaXCIU9K1Gxzco8FJtQoKLvVO3L3rEO5SYB1uuCApPaEcISCmg84MJDWyw92t0JcjGN4vgpj1gC87VnLSVl+WXYy+U5LpqnGuSsep0m8Gb678//90ripkbbWtKnVFjz1rsBm0UqW4atJnxHqWCQoO6JW5AhfSLAAVLfoVryMFKcS84AVQZnHrdVBBGs3KgIbJB0msx56QQ9F748P8IfLWHw7Td8zyf/xwGUPTR495/AI=);whiteSpace=wrap;fontSize=11;strokeOpacity=0;fillOpacity=100;fillColor=#ffffff;whiteSpace=wrap;spacing=0;" parent="S1wnt_isAk2FvLNjlqy5-36" vertex="1">
          <mxGeometry width="27" height="27" relative="1" as="geometry" />
        </mxCell>
        <mxCell id="S1wnt_isAk2FvLNjlqy5-38" value="" style="shape=stencil(lZTdUoMwEEafJrc72c1P6XWt79GxVDIidCjV+vaCSTaQjDjeJctZzvJBEOpwa07XWpC8jUP/Vn+689gI9SSIXNfUgxunlVBHoQ6Xfqhfh/7enf3+eprJefXef8x3ePg+3MNubiL55QsGAX8Kzx5/uQ+eR27A0ICxw+8fFIiKiVAxEvaBUYGxYAKjMiZ4W9ctx9Sg12P+E99twBaqDbgIoOLRccWnAFKmMQCbB0ASKAvAwqZ36qgyL4cYzYSgCjNmZgSbmU2o/GbGOD2bTZyezVS8dB09bE5MNOtNLxWfmiq8abboJU4lPbHOvPRH0vnzYpG05HsSM7T2Lr4DxczqcE2LdDAvrm39uV5ezw/yVPI/AXX8Bg==);whiteSpace=wrap;fontSize=11;strokeOpacity=0;fillOpacity=100;fillColor=#ffffff;whiteSpace=wrap;spacing=0;" parent="S1wnt_isAk2FvLNjlqy5-36" vertex="1">
          <mxGeometry width="27" height="27" relative="1" as="geometry" />
        </mxCell>
        <mxCell id="S1wnt_isAk2FvLNjlqy5-39" value="" style="shape=stencil(jZHdDoIwDIWfZrcNtFvGrhHfg4Qhi8jIGP68vcyZiEtE7k5PvzZND6Ny6upRM8wm7+xZ30zjO0YHhmiGTjvjF8WoYlS21umTs/PQxHqsAxnUxV7Dhnuc4xIoDGH2iEYhQb2MY8R7M6zxHIovXOJvmCTku2HOk82KQGzg6t3dhwsJuPsUgcnuzbv/PXARn+e3pu9jdut+GtZixaCpegI=);whiteSpace=wrap;fontSize=11;strokeOpacity=0;fillOpacity=100;fillColor=#ffffff;whiteSpace=wrap;spacing=0;" parent="S1wnt_isAk2FvLNjlqy5-36" vertex="1">
          <mxGeometry width="27" height="27" relative="1" as="geometry" />
        </mxCell>
        <UserObject label="" lucidchartObjectId="jxm6i2sIY4gDp" id="S1wnt_isAk2FvLNjlqy5-40">
          <mxCell style="html=1;jettySize=18;whiteSpace=wrap;fontSize=11;rounded=0;startArrow=none;;endArrow=none;;exitX=0.998;exitY=0.802;exitPerimeter=0;entryX=-0.027;entryY=1.118;entryPerimeter=0;" parent="tmwGK40KlvC0fED2A8c0-1" source="S1wnt_isAk2FvLNjlqy5-19" target="S1wnt_isAk2FvLNjlqy5-30" edge="1">
            <mxGeometry width="100" height="100" relative="1" as="geometry">
              <Array as="points" />
            </mxGeometry>
          </mxCell>
        </UserObject>
        <UserObject label="" lucidchartObjectId="kgGBPY2KEfGBx" id="S1wnt_isAk2FvLNjlqy5-41">
          <mxCell style="html=1;jettySize=18;whiteSpace=wrap;fontSize=11;rounded=0;startArrow=none;;endArrow=none;;exitX=1;exitY=0.527;exitPerimeter=0;entryX=0;entryY=0.603;entryPerimeter=0;" parent="tmwGK40KlvC0fED2A8c0-1" source="S1wnt_isAk2FvLNjlqy5-13" target="S1wnt_isAk2FvLNjlqy5-42" edge="1">
            <mxGeometry width="100" height="100" relative="1" as="geometry">
              <Array as="points" />
            </mxGeometry>
          </mxCell>
        </UserObject>
        <mxCell id="S1wnt_isAk2FvLNjlqy5-42" value="" style="group;html=1;" parent="tmwGK40KlvC0fED2A8c0-1" vertex="1">
          <mxGeometry x="743" y="213" width="48" height="48" as="geometry" />
        </mxCell>
        <mxCell id="S1wnt_isAk2FvLNjlqy5-43" value="" style="shape=stencil(jZTRcoMgEEW/hldnZdumfU6T/8gkpjq1mjGmwb+vFmTlYoxviAc9u1xQvL3mh0umNF3bpv7O7sWpzRV/Kq2LKs+aou1HineKt+e6yb6a+lad7PPlMJDD6Kf+Hb5g7LoPnWyGRZo6O8HJ+//z3tLHW2Px1PEvnk/DBWS0Q94S7RA385qwQzhC3MzGIe63ZVFNJQUH60eWsiDy9ppSSSTuPaU7aD4rOlbhPYFGT9+YLhIfNX17u8h7tBQEtWclBZ9tPToKjtIGt7dDZ8PYF55NGWz3k0yGCcae03Ix0HAKSyEsBIJLYRmLqaVA61lkSWEQIK+MXU6J1HKXR2Jdl4GeOVNw8kUAjSYnCrIqyKqsCr4qq4LjfpvIqAu3/PGRX+jhYvb6gdy656Is7aU9fY+3dD9lb3je/QE=);whiteSpace=wrap;fontSize=11;strokeOpacity=0;fillOpacity=100;fillColor=#ffffff;whiteSpace=wrap;spacing=0;" parent="S1wnt_isAk2FvLNjlqy5-42" vertex="1">
          <mxGeometry width="48" height="48" relative="1" as="geometry" />
        </mxCell>
        <mxCell id="S1wnt_isAk2FvLNjlqy5-44" value="" style="shape=stencil(pZRLcsIwDIZPk63HlsA2awr3YEpoMk0TJoSW3r5J/RyJQDrdOcon/5IsqcDtpTqcywLkZei79/KrPg5VgS8FQN1WZV8P46nAXYHbU9eXb313bY/u+3yYyOn00X1ON9ycH4DAyQnktzMYLdSvYe/wpm4zXG3E+j+4QmFy/PXau2gUcwgW8B7yBt5ihfZMsChhPYPeYiKDhJlT1tFDsVuDzjrEEpVTdMgYvJ8zKVHiF1UUYpj3cZaXig+siEfKS0bGW4yJDDLGW4wVq4fKkilv2Fsqqmwle0ugbxmZZRX9K659THN5JQdvsSZkEfPStEetFfCsRyMzp2xpj2a3BuU0QcCiQ8bg/ZyfjPHjirKdQnGaFyDLS9LZgxWtaNZNyJiFPZp5hB41dDqy6IKyptORpYyE8crjIe3gU900boXn/+nOHk1u3+PuBw==);whiteSpace=wrap;fontSize=11;strokeOpacity=0;fillOpacity=100;fillColor=#ffffff;whiteSpace=wrap;spacing=0;" parent="S1wnt_isAk2FvLNjlqy5-42" vertex="1">
          <mxGeometry width="48" height="48" relative="1" as="geometry" />
        </mxCell>
        <mxCell id="S1wnt_isAk2FvLNjlqy5-45" value="" style="shape=stencil(pZTLcoMwDEW/hq0H+/Iw6zT9j0xDClMaMoS09O8L9QukhCTTnRFHvroaWRE252p3KiMVn/uu/Si/631fRXiJlKqPVdnV/XiKsI2wObRd+d61l+PefJ92EzmdPtuv6YbB5CUQ+ZSk4h8bKET2F3g1eFMf53gs9H9w6eQs/nbpTDWSJdiIVK7AQZkIClFYxkakdFkDLKM9A8LcUEbuMyS71SnnRDfUBkLgut9le/BM65GswsyPr8358RnBjxTEURozR4GxkVSt6kqqm0KA6Cqmm3gGxC4I8Ugnn4J1toT5ZCz96Jz5yelEai3UvYn0zC3dgk7k7FbF3oti1YExuO74zqNd7ybbIBRnbzwl85HQfiaZkGQ+wFwF5qG5nPFON6abxVfmvsOLATMLwljd8RB27aFuGrOq5//pbh5DZq9j+ws=);whiteSpace=wrap;fontSize=11;strokeOpacity=0;fillOpacity=100;fillColor=#ffffff;whiteSpace=wrap;spacing=0;" parent="S1wnt_isAk2FvLNjlqy5-42" vertex="1">
          <mxGeometry width="48" height="48" relative="1" as="geometry" />
        </mxCell>
        <mxCell id="S1wnt_isAk2FvLNjlqy5-46" value="" style="shape=stencil(nZTdcoMgEIWfhltGWEF6nabvkWlMZWo1Y0ybvn21LD9ZYmJ7B+sHu2c9LIPNqdkdayaL0zj07/WX3Y8Ng2cmpe2aerDjtGKwZbA59EP9NvTnbu/2x91MzquP/nO+4eLOaTUfkcU3boGXv4EXB7e2S2H5f1gAr1L49Ty4OgTBcS8k8sVFIiG4ZzAiBDfIADJFYIAwC3nVExckc7wV8yjDgWSO1UHGwG3F1+1J+DXdVOoBnukqr1UFPqoimnTJFdFEFGn1oJdAcla+tyFnSXKaQEAmFAizso9/w43GwJKmeAAjpvKRoCp6CCPGeB8uOzMwSy8i+l1kt/r+kReR1AaEgNt677/wu72ks4PAmR5NO5n8fRkcQx1SUYckzEpfJid8JHpdZtX5SHwxQAQDITDvtIhz9mDb1o3p9Dudy1PIzXTY/gA=);whiteSpace=wrap;fontSize=11;strokeOpacity=0;fillOpacity=100;fillColor=#ffffff;whiteSpace=wrap;spacing=0;" parent="S1wnt_isAk2FvLNjlqy5-42" vertex="1">
          <mxGeometry width="48" height="48" relative="1" as="geometry" />
        </mxCell>
        <mxCell id="S1wnt_isAk2FvLNjlqy5-47" value="" style="shape=stencil(pZTRdoMgDIafhluOJFXodde9R89qp2dOe6zd2revDjAY6nRndxi/8POHBIG7S3E45wKSS9c2H/l3eewKgS8CoKyLvC27fiVwL3B3atr8vW2u9dF+nw8DOaw+m69hh5vNM9mQAsndfsJGqp/Aq4Wrsg5hlPgfXKHUIf52be1ZVJTgIgpcRnIDx4BMHeMiSknjGHSMGhlkzJxyIjdMmXZ1OnorM6ZMp8OIweeepyUK+DUV1dnCBXBfOp26GnlyhXI7dQWpBOaKGBeBzFV4TpcyvLKO6snuEQy/x8AuMmZlNf+GG68354oSfN9of8KxP6mTfMTwesb9OTJz/Uldr6JdvQ5ND0Snw4jB556XJv7XivLXxCxMnebzHvQAVY+5CjoJI2ZlfwYZXjmN6qkjZZoeZIaREU63X9DLeyqryj7c4X/+Uvch+8rj/gE=);whiteSpace=wrap;fontSize=11;strokeOpacity=0;fillOpacity=100;fillColor=#ffffff;whiteSpace=wrap;spacing=0;" parent="S1wnt_isAk2FvLNjlqy5-42" vertex="1">
          <mxGeometry width="48" height="48" relative="1" as="geometry" />
        </mxCell>
        <mxCell id="S1wnt_isAk2FvLNjlqy5-48" value="" style="group;html=1;" parent="tmwGK40KlvC0fED2A8c0-1" vertex="1">
          <mxGeometry x="803" y="225" width="156" height="24" as="geometry" />
        </mxCell>
        <mxCell id="S1wnt_isAk2FvLNjlqy5-49" value="" style="shape=stencil(nZBRDoQgDERP03+WHsHFe5iISyOCQdT19kIaIxq//Jtp3zTpAFaTaUYNUkwx+F6v1EYD+AUpyRkdKCYFqACrzgf9C352LfuxyWRWg1/yhT/nRE5IsZWuZtCSK8CPeI0e/hF+jV7AJM4PO7KWCyr390bSiNtEtQM=);whiteSpace=wrap;fontSize=11;strokeOpacity=0;fillOpacity=0;fillColor=#000000;whiteSpace=wrap;spacing=0;" parent="S1wnt_isAk2FvLNjlqy5-48" vertex="1">
          <mxGeometry width="156" height="24" relative="1" as="geometry" />
        </mxCell>
        <mxCell id="S1wnt_isAk2FvLNjlqy5-50" value="ETN Management" style="strokeColor=none;fillColor=none;overflow=visible;whiteSpace=wrap;fontSize=13;fontFamily=Carlito;fontColor=#ffffff;align=center;whiteSpace=wrap;spacing=0;strokeOpacity=0;fillOpacity=0;whiteSpace=wrap;" parent="S1wnt_isAk2FvLNjlqy5-48" vertex="1">
          <mxGeometry x="0.034" y="0.222" width="145.392" height="13.344000000000001" relative="1" as="geometry" />
        </mxCell>
        <mxCell id="S1wnt_isAk2FvLNjlqy5-51" value="" style="points=[[1,0.532,0]];group;html=1;" parent="tmwGK40KlvC0fED2A8c0-1" vertex="1">
          <mxGeometry x="229" y="421" width="436" height="38" as="geometry" />
        </mxCell>
        <mxCell id="S1wnt_isAk2FvLNjlqy5-52" value="" style="shape=stencil(nZBLDoAgDERP0z3SIyjew0SURgSD+Lu9kMZoXLhwN9O+tukAlrNpJg1SzDH4QW/URgNYgZTkjA4UkwJUgGXng+6DX1zLfmoymdXo17xh5zmRJ6Q42BWCfc2oJfdAr+Yv+AP9Cb7OJ3H/2JG1HNGz/84klThPVCc=);whiteSpace=wrap;fontSize=11;fillColor=#002060;gradientColor=#9c4a09;whiteSpace=wrap;spacing=0;rounded=1;absoluteArcSize=1;arcSize=24;" parent="S1wnt_isAk2FvLNjlqy5-51" vertex="1">
          <mxGeometry width="436" height="38" relative="1" as="geometry" />
        </mxCell>
        <mxCell id="S1wnt_isAk2FvLNjlqy5-53" value="(Edge VTEPs VLAN 201, Tagged)" style="strokeColor=none;fillColor=none;overflow=visible;whiteSpace=wrap;fontSize=10;fontFamily=Arimo;fontColor=#ffffff;fontStyle=1;align=center;whiteSpace=wrap;spacing=0;rounded=1;absoluteArcSize=1;arcSize=24;whiteSpace=wrap;" parent="S1wnt_isAk2FvLNjlqy5-51" vertex="1">
          <mxGeometry x="0.012" y="0.139" width="425.536" height="27.436" relative="1" as="geometry" />
        </mxCell>
        <UserObject label="" lucidchartObjectId="6w5kOWbAS6x4q" id="S1wnt_isAk2FvLNjlqy5-54">
          <mxCell style="html=1;jettySize=18;whiteSpace=wrap;fontSize=11;rounded=0;startArrow=none;;endArrow=none;;exitX=1;exitY=0.532;exitPerimeter=0;entryX=0;entryY=0.485;entryPerimeter=0;" parent="tmwGK40KlvC0fED2A8c0-1" source="S1wnt_isAk2FvLNjlqy5-51" target="S1wnt_isAk2FvLNjlqy5-56" edge="1">
            <mxGeometry width="100" height="100" relative="1" as="geometry">
              <Array as="points" />
            </mxGeometry>
          </mxCell>
        </UserObject>
        <mxCell id="S1wnt_isAk2FvLNjlqy5-55" value="" style="group;dropTarget=0;" parent="tmwGK40KlvC0fED2A8c0-1" vertex="1">
          <mxGeometry x="1324" y="411" width="267" height="49" as="geometry" />
        </mxCell>
        <mxCell id="S1wnt_isAk2FvLNjlqy5-56" value="" style="points=[[0,0.485,0]];group;html=1;" parent="S1wnt_isAk2FvLNjlqy5-55" vertex="1">
          <mxGeometry width="49" height="49" as="geometry" />
        </mxCell>
        <mxCell id="S1wnt_isAk2FvLNjlqy5-57" value="" style="shape=stencil(lZTdkoIwDIWfprdM2gCzXrvueziKS0cEp+IPb7+wLQ0NCHhXwil8OT2NwO0t318zoeBWm+qcPfWxzgV+C6V0mWdG1+1K4E7g9lSZ7NdU9/Jon6/7TtmtLtWj+8LL7tvIaNNtUtDYAkbp//OPVR/uxsql08dR7PQy3AAv5SSpl7hK4iU4krjKVySHvy10OYQkOaN+R5lySuL2mDHHpF2ek9zh5JOgfReek6k5pzemGYH3mN7eZsTdU5KEY09CknzSes6InDHhB55wROTnTb7gZMrYcS9kMkww9xw+agbCVmChEQjbmE0tBFhLkQXxaRAkgJh3uVesc5mpl+8UAXCi9zeKJKuySvJVWSX5+uHETBxf+RkPZ7PXLmjqnnRR2KE9fM+ndFuyEx53fw==);whiteSpace=wrap;fontSize=11;strokeOpacity=0;fillOpacity=100;fillColor=#ffffff;whiteSpace=wrap;spacing=0;" parent="S1wnt_isAk2FvLNjlqy5-56" vertex="1">
          <mxGeometry width="49" height="49" relative="1" as="geometry" />
        </mxCell>
        <mxCell id="S1wnt_isAk2FvLNjlqy5-58" value="" style="shape=stencil(lZLRDoMgDEW/hleiLS767Nx/mImTzKlB3fTvJwHUoG7xrZRze0spwbgt0oYT8NpO1k/+EVlXELwSAFEVXIpuiggmBOO8lvwh677K9LlJFamiV/1WFQat8wMaKRF4o04wm7hpvBTVCg+Qsp/4vZe6vG8EbBb4jsIbwDABBcPAzPiGwQ1jMowZ5sh5UVhnnKvCpjvrDBQd5+XJ6DC7I9pO9ByOEQ2O8dA+Ydyfwr9eQno5gzu/OwXLIuWiLPUeru/dxZtSemkx+QI=);whiteSpace=wrap;fontSize=11;strokeOpacity=0;fillOpacity=100;fillColor=#ffffff;whiteSpace=wrap;spacing=0;" parent="S1wnt_isAk2FvLNjlqy5-56" vertex="1">
          <mxGeometry width="49" height="49" relative="1" as="geometry" />
        </mxCell>
        <mxCell id="S1wnt_isAk2FvLNjlqy5-59" value="" style="shape=stencil(pZLREoIgEEW/hldGWNF8NvsPJzGZTB3Usr9PgsTAmmZ6Wy7n7i7LIkj7Ku84okE/yPbMb6IYKgR7RKloKi7FMEcIMgRp2Up+ku3YFPrc5YpU0aW9qgyT9jHAoTLR4K6FmOLoKRw0XotmhROGk3/wKDHCJr7D5D15aJr7sZcvqX04wvAZ98fi4MdR6jESYwgXA3EcwUQNwzA1jFFihplhwGNgewheZet4VV6aXyrb7qjzb7ayfTJs/+0c2DUqRV3rLVzfu2s3S3plIXsA);whiteSpace=wrap;fontSize=11;strokeOpacity=0;fillOpacity=100;fillColor=#ffffff;whiteSpace=wrap;spacing=0;" parent="S1wnt_isAk2FvLNjlqy5-56" vertex="1">
          <mxGeometry width="49" height="49" relative="1" as="geometry" />
        </mxCell>
        <mxCell id="S1wnt_isAk2FvLNjlqy5-60" value="" style="shape=stencil(lZLZDoMgEEW/hlfC6vJs2/8wFSupFYPa6t9XAi5BbePbMJw7dxgG0KQp0loAgppWq6f4yKwtAL0AQmRVCC3bMQL0CmiSKy0eWnVVZs91akgTvdTbVOitLmIQGxFBg03wKXGzeCmrFc4CGPzE75225bET8FmAPQXqiWMYjBxDZiZ2DN0wLsO5Y46cF8XkHMxVyaa7yTmEoee8PJl6zO6IthM9hwcI8mM8xtMbhv0x/GsGQ3YG9753DJZNymVZ2kVc3/ubN6bs1tLrFw==);whiteSpace=wrap;fontSize=11;strokeOpacity=0;fillOpacity=100;fillColor=#ffffff;whiteSpace=wrap;spacing=0;" parent="S1wnt_isAk2FvLNjlqy5-56" vertex="1">
          <mxGeometry width="49" height="49" relative="1" as="geometry" />
        </mxCell>
        <mxCell id="S1wnt_isAk2FvLNjlqy5-61" value="" style="shape=stencil(lZLdEoIgEIWfhltGWPy7NnsPJzWZTB3UsrdPAsXQdLpbD9/Zs+4sgqgtkiZD1Gk7Ud+yJ0+7AsEJUcqrIhO8GysEMYIor0V2FXVfpeq7SSQpq3v9kB0G5QsYJtJEnZcSKGD/I5wVXvJqgTMPe7v4pReqPdEGdzYQy+EMVDMMB5rRCmXY1QysGK3QqfOvZOOYkufh52Qz3ZTsY2Ylm18Gi9lc0Xqj/+HgaGETDwkOv7tbazgaZqf34S2MhbmjnJelOsPlu313o6RuFuI3);whiteSpace=wrap;fontSize=11;strokeOpacity=0;fillOpacity=100;fillColor=#ffffff;whiteSpace=wrap;spacing=0;" parent="S1wnt_isAk2FvLNjlqy5-56" vertex="1">
          <mxGeometry width="49" height="49" relative="1" as="geometry" />
        </mxCell>
        <mxCell id="S1wnt_isAk2FvLNjlqy5-62" value="" style="group;html=1;" parent="S1wnt_isAk2FvLNjlqy5-55" vertex="1">
          <mxGeometry x="61" y="9" width="206" height="29" as="geometry" />
        </mxCell>
        <mxCell id="S1wnt_isAk2FvLNjlqy5-63" value="" style="shape=stencil(nZBRDoQgDERP03+WHsHFe5iISyOCQdT19kIaIxq//Jtp3zTpAFaTaUYNUkwx+F6v1EYD+AUpyRkdKCYFqACrzgf9C352LfuxyWRWg1/yhT/nRE5IsZWuZtCSK8CPeI0e/hF+jV7AJM4PO7KWCyr390bSiNtEtQM=);whiteSpace=wrap;fontSize=11;strokeOpacity=0;fillOpacity=0;fillColor=#000000;whiteSpace=wrap;spacing=0;" parent="S1wnt_isAk2FvLNjlqy5-62" vertex="1">
          <mxGeometry width="206" height="29" relative="1" as="geometry" />
        </mxCell>
        <mxCell id="S1wnt_isAk2FvLNjlqy5-64" value="ETN VTEP fp-eth0" style="strokeColor=none;fillColor=none;overflow=visible;whiteSpace=wrap;fontSize=13;fontFamily=Carlito;fontColor=#ffffff;align=left;whiteSpace=wrap;spacing=0;strokeOpacity=0;fillOpacity=0;whiteSpace=wrap;" parent="S1wnt_isAk2FvLNjlqy5-62" vertex="1">
          <mxGeometry x="0.026" y="0.182" width="195.28799999999998" height="18.415" relative="1" as="geometry" />
        </mxCell>
        <mxCell id="S1wnt_isAk2FvLNjlqy5-65" value="" style="group;dropTarget=0;" parent="tmwGK40KlvC0fED2A8c0-1" vertex="1">
          <mxGeometry x="1323" y="591" width="268" height="49" as="geometry" />
        </mxCell>
        <mxCell id="S1wnt_isAk2FvLNjlqy5-66" value="" style="points=[[0,0.515,0],[0,0.515,0],[0,0.515,0]];group;html=1;" parent="S1wnt_isAk2FvLNjlqy5-65" vertex="1">
          <mxGeometry width="49" height="49" as="geometry" />
        </mxCell>
        <mxCell id="S1wnt_isAk2FvLNjlqy5-67" value="" style="shape=stencil(lZTdkoIwDIWfprdM2gCzXrvueziKS0cEp+IPb7+wLQ0NCHhXwil8OT2NwO0t318zoeBWm+qcPfWxzgV+C6V0mWdG1+1K4E7g9lSZ7NdU9/Jon6/7TtmtLtWj+8LL7tvIaNNtUtDYAkbp//OPVR/uxsql08dR7PQy3AAv5SSpl7hK4iU4krjKVySHvy10OYQkOaN+R5lySuL2mDHHpF2ek9zh5JOgfReek6k5pzemGYH3mN7eZsTdU5KEY09CknzSes6InDHhB55wROTnTb7gZMrYcS9kMkww9xw+agbCVmChEQjbmE0tBFhLkQXxaRAkgJh3uVesc5mpl+8UAXCi9zeKJKuySvJVWSX5+uHETBxf+RkPZ7PXLmjqnnRR2KE9fM+ndFuyEx53fw==);whiteSpace=wrap;fontSize=11;strokeOpacity=0;fillOpacity=100;fillColor=#ffffff;whiteSpace=wrap;spacing=0;" parent="S1wnt_isAk2FvLNjlqy5-66" vertex="1">
          <mxGeometry width="49" height="49" relative="1" as="geometry" />
        </mxCell>
        <mxCell id="S1wnt_isAk2FvLNjlqy5-68" value="" style="shape=stencil(lZLRDoMgDEW/hleiLS767Nx/mImTzKlB3fTvJwHUoG7xrZRze0spwbgt0oYT8NpO1k/+EVlXELwSAFEVXIpuiggmBOO8lvwh677K9LlJFamiV/1WFQat8wMaKRF4o04wm7hpvBTVCg+Qsp/4vZe6vG8EbBb4jsIbwDABBcPAzPiGwQ1jMowZ5sh5UVhnnKvCpjvrDBQd5+XJ6DC7I9pO9ByOEQ2O8dA+Ydyfwr9eQno5gzu/OwXLIuWiLPUeru/dxZtSemkx+QI=);whiteSpace=wrap;fontSize=11;strokeOpacity=0;fillOpacity=100;fillColor=#ffffff;whiteSpace=wrap;spacing=0;" parent="S1wnt_isAk2FvLNjlqy5-66" vertex="1">
          <mxGeometry width="49" height="49" relative="1" as="geometry" />
        </mxCell>
        <mxCell id="S1wnt_isAk2FvLNjlqy5-69" value="" style="shape=stencil(pZLREoIgEEW/hldGWNF8NvsPJzGZTB3Usr9PgsTAmmZ6Wy7n7i7LIkj7Ku84okE/yPbMb6IYKgR7RKloKi7FMEcIMgRp2Up+ku3YFPrc5YpU0aW9qgyT9jHAoTLR4K6FmOLoKRw0XotmhROGk3/wKDHCJr7D5D15aJr7sZcvqX04wvAZ98fi4MdR6jESYwgXA3EcwUQNwzA1jFFihplhwGNgewheZet4VV6aXyrb7qjzb7ayfTJs/+0c2DUqRV3rLVzfu2s3S3plIXsA);whiteSpace=wrap;fontSize=11;strokeOpacity=0;fillOpacity=100;fillColor=#ffffff;whiteSpace=wrap;spacing=0;" parent="S1wnt_isAk2FvLNjlqy5-66" vertex="1">
          <mxGeometry width="49" height="49" relative="1" as="geometry" />
        </mxCell>
        <mxCell id="S1wnt_isAk2FvLNjlqy5-70" value="" style="shape=stencil(lZLZDoMgEEW/hlfC6vJs2/8wFSupFYPa6t9XAi5BbePbMJw7dxgG0KQp0loAgppWq6f4yKwtAL0AQmRVCC3bMQL0CmiSKy0eWnVVZs91akgTvdTbVOitLmIQGxFBg03wKXGzeCmrFc4CGPzE75225bET8FmAPQXqiWMYjBxDZiZ2DN0wLsO5Y46cF8XkHMxVyaa7yTmEoee8PJl6zO6IthM9hwcI8mM8xtMbhv0x/GsGQ3YG9753DJZNymVZ2kVc3/ubN6bs1tLrFw==);whiteSpace=wrap;fontSize=11;strokeOpacity=0;fillOpacity=100;fillColor=#ffffff;whiteSpace=wrap;spacing=0;" parent="S1wnt_isAk2FvLNjlqy5-66" vertex="1">
          <mxGeometry width="49" height="49" relative="1" as="geometry" />
        </mxCell>
        <mxCell id="S1wnt_isAk2FvLNjlqy5-71" value="" style="shape=stencil(lZLdEoIgEIWfhltGWPy7NnsPJzWZTB3UsrdPAsXQdLpbD9/Zs+4sgqgtkiZD1Gk7Ud+yJ0+7AsEJUcqrIhO8GysEMYIor0V2FXVfpeq7SSQpq3v9kB0G5QsYJtJEnZcSKGD/I5wVXvJqgTMPe7v4pReqPdEGdzYQy+EMVDMMB5rRCmXY1QysGK3QqfOvZOOYkufh52Qz3ZTsY2Ylm18Gi9lc0Xqj/+HgaGETDwkOv7tbazgaZqf34S2MhbmjnJelOsPlu313o6RuFuI3);whiteSpace=wrap;fontSize=11;strokeOpacity=0;fillOpacity=100;fillColor=#ffffff;whiteSpace=wrap;spacing=0;" parent="S1wnt_isAk2FvLNjlqy5-66" vertex="1">
          <mxGeometry width="49" height="49" relative="1" as="geometry" />
        </mxCell>
        <mxCell id="S1wnt_isAk2FvLNjlqy5-72" value="" style="group;html=1;" parent="S1wnt_isAk2FvLNjlqy5-65" vertex="1">
          <mxGeometry x="62" y="9" width="206" height="29" as="geometry" />
        </mxCell>
        <mxCell id="S1wnt_isAk2FvLNjlqy5-73" value="" style="shape=stencil(nZBRDoQgDERP03+WHsHFe5iISyOCQdT19kIaIxq//Jtp3zTpAFaTaUYNUkwx+F6v1EYD+AUpyRkdKCYFqACrzgf9C352LfuxyWRWg1/yhT/nRE5IsZWuZtCSK8CPeI0e/hF+jV7AJM4PO7KWCyr390bSiNtEtQM=);whiteSpace=wrap;fontSize=11;strokeOpacity=0;fillOpacity=0;fillColor=#000000;whiteSpace=wrap;spacing=0;" parent="S1wnt_isAk2FvLNjlqy5-72" vertex="1">
          <mxGeometry width="206" height="29" relative="1" as="geometry" />
        </mxCell>
        <mxCell id="S1wnt_isAk2FvLNjlqy5-74" value="ETN BGP Peers fp-eth1" style="strokeColor=none;fillColor=none;overflow=visible;whiteSpace=wrap;fontSize=13;fontFamily=Carlito;fontColor=#ffffff;align=left;whiteSpace=wrap;spacing=0;strokeOpacity=0;fillOpacity=0;whiteSpace=wrap;" parent="S1wnt_isAk2FvLNjlqy5-72" vertex="1">
          <mxGeometry x="0.026" y="0.182" width="195.28799999999998" height="18.415" relative="1" as="geometry" />
        </mxCell>
        <UserObject label="" lucidchartObjectId="njdcSXUCd0yll" id="S1wnt_isAk2FvLNjlqy5-75">
          <mxCell style="html=1;jettySize=18;whiteSpace=wrap;fontSize=11;rounded=0;startArrow=none;;endArrow=none;;exitX=1.049;exitY=3.385;exitPerimeter=0;entryX=0;entryY=0.515;entryPerimeter=0;" parent="tmwGK40KlvC0fED2A8c0-1" source="S1wnt_isAk2FvLNjlqy5-36" target="S1wnt_isAk2FvLNjlqy5-66" edge="1">
            <mxGeometry width="100" height="100" relative="1" as="geometry">
              <Array as="points" />
            </mxGeometry>
          </mxCell>
        </UserObject>
        <UserObject label="" lucidchartObjectId="oEjhjQ9Dh2nBR" id="S1wnt_isAk2FvLNjlqy5-76">
          <mxCell style="html=1;jettySize=18;whiteSpace=wrap;fontSize=11;rounded=0;startArrow=none;;endArrow=none;;exitX=1.049;exitY=4.716;exitPerimeter=0;entryX=0;entryY=0.515;entryPerimeter=0;" parent="tmwGK40KlvC0fED2A8c0-1" source="S1wnt_isAk2FvLNjlqy5-36" target="S1wnt_isAk2FvLNjlqy5-66" edge="1">
            <mxGeometry width="100" height="100" relative="1" as="geometry">
              <Array as="points" />
            </mxGeometry>
          </mxCell>
        </UserObject>
        <UserObject label="" lucidchartObjectId="YoaLhEHw28m45" id="S1wnt_isAk2FvLNjlqy5-77">
          <mxCell style="html=1;jettySize=18;whiteSpace=wrap;fontSize=11;rounded=0;startArrow=none;;endArrow=none;;exitX=1.019;exitY=7.601;exitPerimeter=0;entryX=0;entryY=0.515;entryPerimeter=0;" parent="tmwGK40KlvC0fED2A8c0-1" source="S1wnt_isAk2FvLNjlqy5-36" target="S1wnt_isAk2FvLNjlqy5-66" edge="1">
            <mxGeometry width="100" height="100" relative="1" as="geometry">
              <Array as="points" />
            </mxGeometry>
          </mxCell>
        </UserObject>
        <mxCell id="S1wnt_isAk2FvLNjlqy5-78" value="" style="group;dropTarget=0;" parent="tmwGK40KlvC0fED2A8c0-1" vertex="1">
          <mxGeometry x="1323" y="677" width="268" height="49" as="geometry" />
        </mxCell>
        <mxCell id="S1wnt_isAk2FvLNjlqy5-79" value="" style="points=[[0,0.485,0]];group;html=1;" parent="S1wnt_isAk2FvLNjlqy5-78" vertex="1">
          <mxGeometry width="49" height="49" as="geometry" />
        </mxCell>
        <mxCell id="S1wnt_isAk2FvLNjlqy5-80" value="" style="shape=stencil(lZTdkoIwDIWfprdM2gCzXrvueziKS0cEp+IPb7+wLQ0NCHhXwil8OT2NwO0t318zoeBWm+qcPfWxzgV+C6V0mWdG1+1K4E7g9lSZ7NdU9/Jon6/7TtmtLtWj+8LL7tvIaNNtUtDYAkbp//OPVR/uxsql08dR7PQy3AAv5SSpl7hK4iU4krjKVySHvy10OYQkOaN+R5lySuL2mDHHpF2ek9zh5JOgfReek6k5pzemGYH3mN7eZsTdU5KEY09CknzSes6InDHhB55wROTnTb7gZMrYcS9kMkww9xw+agbCVmChEQjbmE0tBFhLkQXxaRAkgJh3uVesc5mpl+8UAXCi9zeKJKuySvJVWSX5+uHETBxf+RkPZ7PXLmjqnnRR2KE9fM+ndFuyEx53fw==);whiteSpace=wrap;fontSize=11;strokeOpacity=0;fillOpacity=100;fillColor=#ffffff;whiteSpace=wrap;spacing=0;" parent="S1wnt_isAk2FvLNjlqy5-79" vertex="1">
          <mxGeometry width="49" height="49" relative="1" as="geometry" />
        </mxCell>
        <mxCell id="S1wnt_isAk2FvLNjlqy5-81" value="" style="shape=stencil(lZLRDoMgDEW/hleiLS767Nx/mImTzKlB3fTvJwHUoG7xrZRze0spwbgt0oYT8NpO1k/+EVlXELwSAFEVXIpuiggmBOO8lvwh677K9LlJFamiV/1WFQat8wMaKRF4o04wm7hpvBTVCg+Qsp/4vZe6vG8EbBb4jsIbwDABBcPAzPiGwQ1jMowZ5sh5UVhnnKvCpjvrDBQd5+XJ6DC7I9pO9ByOEQ2O8dA+Ydyfwr9eQno5gzu/OwXLIuWiLPUeru/dxZtSemkx+QI=);whiteSpace=wrap;fontSize=11;strokeOpacity=0;fillOpacity=100;fillColor=#ffffff;whiteSpace=wrap;spacing=0;" parent="S1wnt_isAk2FvLNjlqy5-79" vertex="1">
          <mxGeometry width="49" height="49" relative="1" as="geometry" />
        </mxCell>
        <mxCell id="S1wnt_isAk2FvLNjlqy5-82" value="" style="shape=stencil(pZLREoIgEEW/hldGWNF8NvsPJzGZTB3Usr9PgsTAmmZ6Wy7n7i7LIkj7Ku84okE/yPbMb6IYKgR7RKloKi7FMEcIMgRp2Up+ku3YFPrc5YpU0aW9qgyT9jHAoTLR4K6FmOLoKRw0XotmhROGk3/wKDHCJr7D5D15aJr7sZcvqX04wvAZ98fi4MdR6jESYwgXA3EcwUQNwzA1jFFihplhwGNgewheZet4VV6aXyrb7qjzb7ayfTJs/+0c2DUqRV3rLVzfu2s3S3plIXsA);whiteSpace=wrap;fontSize=11;strokeOpacity=0;fillOpacity=100;fillColor=#ffffff;whiteSpace=wrap;spacing=0;" parent="S1wnt_isAk2FvLNjlqy5-79" vertex="1">
          <mxGeometry width="49" height="49" relative="1" as="geometry" />
        </mxCell>
        <mxCell id="S1wnt_isAk2FvLNjlqy5-83" value="" style="shape=stencil(lZLZDoMgEEW/hlfC6vJs2/8wFSupFYPa6t9XAi5BbePbMJw7dxgG0KQp0loAgppWq6f4yKwtAL0AQmRVCC3bMQL0CmiSKy0eWnVVZs91akgTvdTbVOitLmIQGxFBg03wKXGzeCmrFc4CGPzE75225bET8FmAPQXqiWMYjBxDZiZ2DN0wLsO5Y46cF8XkHMxVyaa7yTmEoee8PJl6zO6IthM9hwcI8mM8xtMbhv0x/GsGQ3YG9753DJZNymVZ2kVc3/ubN6bs1tLrFw==);whiteSpace=wrap;fontSize=11;strokeOpacity=0;fillOpacity=100;fillColor=#ffffff;whiteSpace=wrap;spacing=0;" parent="S1wnt_isAk2FvLNjlqy5-79" vertex="1">
          <mxGeometry width="49" height="49" relative="1" as="geometry" />
        </mxCell>
        <mxCell id="S1wnt_isAk2FvLNjlqy5-84" value="" style="shape=stencil(lZLdEoIgEIWfhltGWPy7NnsPJzWZTB3UsrdPAsXQdLpbD9/Zs+4sgqgtkiZD1Gk7Ud+yJ0+7AsEJUcqrIhO8GysEMYIor0V2FXVfpeq7SSQpq3v9kB0G5QsYJtJEnZcSKGD/I5wVXvJqgTMPe7v4pReqPdEGdzYQy+EMVDMMB5rRCmXY1QysGK3QqfOvZOOYkufh52Qz3ZTsY2Ylm18Gi9lc0Xqj/+HgaGETDwkOv7tbazgaZqf34S2MhbmjnJelOsPlu313o6RuFuI3);whiteSpace=wrap;fontSize=11;strokeOpacity=0;fillOpacity=100;fillColor=#ffffff;whiteSpace=wrap;spacing=0;" parent="S1wnt_isAk2FvLNjlqy5-79" vertex="1">
          <mxGeometry width="49" height="49" relative="1" as="geometry" />
        </mxCell>
        <mxCell id="S1wnt_isAk2FvLNjlqy5-85" value="" style="group;html=1;" parent="S1wnt_isAk2FvLNjlqy5-78" vertex="1">
          <mxGeometry x="62" y="9" width="206" height="29" as="geometry" />
        </mxCell>
        <mxCell id="S1wnt_isAk2FvLNjlqy5-86" value="" style="shape=stencil(nZBRDoQgDERP03+WHsHFe5iISyOCQdT19kIaIxq//Jtp3zTpAFaTaUYNUkwx+F6v1EYD+AUpyRkdKCYFqACrzgf9C352LfuxyWRWg1/yhT/nRE5IsZWuZtCSK8CPeI0e/hF+jV7AJM4PO7KWCyr390bSiNtEtQM=);whiteSpace=wrap;fontSize=11;strokeOpacity=0;fillOpacity=0;fillColor=#000000;whiteSpace=wrap;spacing=0;" parent="S1wnt_isAk2FvLNjlqy5-85" vertex="1">
          <mxGeometry width="206" height="29" relative="1" as="geometry" />
        </mxCell>
        <mxCell id="S1wnt_isAk2FvLNjlqy5-87" value="VN-Segments (Overlay TZ)" style="strokeColor=none;fillColor=none;overflow=visible;whiteSpace=wrap;fontSize=13;fontFamily=Carlito;fontColor=#ffffff;align=left;whiteSpace=wrap;spacing=0;strokeOpacity=0;fillOpacity=0;whiteSpace=wrap;" parent="S1wnt_isAk2FvLNjlqy5-85" vertex="1">
          <mxGeometry x="0.026" y="0.182" width="195.28799999999998" height="18.415" relative="1" as="geometry" />
        </mxCell>
        <UserObject label="" lucidchartObjectId="OgY1O1G1oGDkg" id="S1wnt_isAk2FvLNjlqy5-88">
          <mxCell style="html=1;jettySize=18;whiteSpace=wrap;fontSize=11;rounded=0;startArrow=none;;endArrow=none;;exitX=1.019;exitY=6.159;exitPerimeter=0;entryX=0;entryY=0.485;entryPerimeter=0;" parent="tmwGK40KlvC0fED2A8c0-1" source="S1wnt_isAk2FvLNjlqy5-36" target="S1wnt_isAk2FvLNjlqy5-79" edge="1">
            <mxGeometry width="100" height="100" relative="1" as="geometry">
              <Array as="points" />
            </mxGeometry>
          </mxCell>
        </UserObject>
        <mxCell id="S1wnt_isAk2FvLNjlqy5-89" value="" style="group;html=1;" parent="tmwGK40KlvC0fED2A8c0-1" vertex="1">
          <mxGeometry x="1373" y="198" width="159" height="159" as="geometry" />
        </mxCell>
        <mxCell id="S1wnt_isAk2FvLNjlqy5-90" value="" style="shape=stencil(lVfLctswDPwaXTUk+BLPafIfmcSpNXXtjOK09t9HrkhIXMpQc5PhJXcJLECpMQ8f++f3XUPq4zycfu3+9q/nfWN+NET9cb8b+vP41JjHxjy8nYbdz+H0eXydfr8/35C3p9+nP7cdLtM67Vu6LSJ1TQFq47/A0wQ/9McF3NjWlPDQdvfhFAswmVbfBztqXQG3vvUi3CI83IfbmIQyPKaTryv3cFBy0u6kC7ARjrmZcShQaMu9bUjKEvzlc5jwOi2ISai6alihLpTlcu6IMSlyMQlDrNMwxkvMY3ldxRyB2TImM3dp15nZce4N1yqIzHNOU8SpXG5mzm5iZscnZOYZkyLOlMVZYfbA7HhXqryUmTmyOHME5lD6s2J2XMPM3GWrLLLdAXPHecnMFnij7K+xygZ4Y1Vlwip7VeVaszbDGCsyK3T2uMKXzDqyE2bmUDLrgP5izHrHWpg034V30ozUChr8m3CcBwDfGh/ltImzDVNtZftHz9vnkuCsib6qCFpwAUkR8UwRJ2gkeTzEajxEy6YgjFwr4ayTGIPKV4UGuEMQjTo5MddK+IUgvQuVulRZTZLopCvdaXCIU9K1Gxzco8FJtQoKLvVO3L3rEO5SYB1uuCApPaEcISCmg84MJDWyw92t0JcjGN4vgpj1gC87VnLSVl+WXYy+U5LpqnGuSsep0m8Gb678//90ripkbbWtKnVFjz1rsBm0UqW4atJnxHqWCQoO6JW5AhfSLAAVLfoVryMFKcS84AVQZnHrdVBBGs3KgIbJB0msx56QQ9F748P8IfLWHw7Td8zyf/xwGUPTR495/AI=);whiteSpace=wrap;fontSize=11;strokeOpacity=0;fillOpacity=100;fillColor=#ffffff;whiteSpace=wrap;spacing=0;" parent="S1wnt_isAk2FvLNjlqy5-89" vertex="1">
          <mxGeometry width="159" height="159" relative="1" as="geometry" />
        </mxCell>
        <mxCell id="S1wnt_isAk2FvLNjlqy5-91" value="" style="shape=stencil(lZTdcoMgEEafhtsddkGj12n6HpnGVKZWM8S0ydtHy58uUzu9w/UsBz5BofbX9nhpBMnraIeP5tucxlaoF0Fk+raxZpxGQh2E2p8H27zb4daf3PPlOJPz6HP4mme4uz6sYTc3kXy4QoGAP4VXh7/drOMxNqBvwNDhnu/kiSoSvlJIqD2jPFNC4RnFGO/tTL9cpga9XuY/8d0GXEK1AWcBVHHpuOJTACnTEEDJAyAJxAIoYdM7dVTMG0MMZkJQmRmZGaFk5sJXfjNjWH00F8A+OlH20XXwRHNigllveik7aiqktthxzbwUU0k71sxLfyTN94tZ0jLOSZGhtXdxDlRkVpdrGqSLeTZd5+718j2/yFPJ/QTU4Qk=);whiteSpace=wrap;fontSize=11;strokeOpacity=0;fillOpacity=100;fillColor=#ffffff;whiteSpace=wrap;spacing=0;" parent="S1wnt_isAk2FvLNjlqy5-89" vertex="1">
          <mxGeometry width="159" height="159" relative="1" as="geometry" />
        </mxCell>
        <mxCell id="S1wnt_isAk2FvLNjlqy5-92" value="" style="shape=stencil(jZHdDoIwDIWfZrcNtFvGrhHfg4Qhi8jIGP68vcyZiEtE7k5PvzZND6Ny6upRM8wm7+xZ30zjO0YHhmiGTjvjF8WoYlS21umTs/PQxHqsAxnUxV7Dhnuc4xIoDGH2iEYhQb2MY8R7M6zxHIovXOJvmCTku2HOk82KQGzg6t3dhwsJuPsUgcnuzbv/PXARn+e3pu9jdut+GtZixaCpegI=);whiteSpace=wrap;fontSize=11;strokeOpacity=0;fillOpacity=100;fillColor=#ffffff;whiteSpace=wrap;spacing=0;" parent="S1wnt_isAk2FvLNjlqy5-89" vertex="1">
          <mxGeometry width="159" height="159" relative="1" as="geometry" />
        </mxCell>
      </root>
    </mxGraphModel>
  </diagram>
  <diagram id="ilqK-dXdvOM0DUQI1Crq" name="HTN Design">
    <mxGraphModel dx="2062" dy="1065" grid="1" gridSize="10" guides="1" tooltips="1" connect="1" arrows="1" fold="1" page="1" pageScale="1" pageWidth="1700" pageHeight="1100" math="0" shadow="0">
      <root>
        <mxCell id="UL6HkNOrxJcR1W0lbAR9-0" />
        <mxCell id="UL6HkNOrxJcR1W0lbAR9-1" parent="UL6HkNOrxJcR1W0lbAR9-0" />
        <mxCell id="Wzx5845afE0IqANnSBGT-0" value="" style="group;html=1;" parent="UL6HkNOrxJcR1W0lbAR9-1" vertex="1">
          <mxGeometry x="322" y="434" width="500" height="172" as="geometry" />
        </mxCell>
        <mxCell id="Wzx5845afE0IqANnSBGT-1" value="" style="shape=stencil(nZBLDoAgDERP0z3SIyjew0SURgSD+Lu9kMZoXLhwN9O+tukAlrNpJg1SzDH4QW/URgNYgZTkjA4UkwJUgGXng+6DX1zLfmoymdXo17xh5zmRJ6Q42BWCfc2oJfdAr+Yv+AP9Cb7OJ3H/2JG1HNGz/84klThPVCc=);whiteSpace=wrap;fontSize=11;fillColor=#65b81b;gradientColor=#bbfd8e;whiteSpace=wrap;align=right;spacing=0;verticalAlign=bottom;rounded=1;absoluteArcSize=1;arcSize=48;" parent="Wzx5845afE0IqANnSBGT-0" vertex="1">
          <mxGeometry width="500" height="172" relative="1" as="geometry" />
        </mxCell>
        <mxCell id="Wzx5845afE0IqANnSBGT-2" value="&lt;div style=&quot;display: flex; justify-content: center; text-align: center; align-items: baseline; font-size: 0; line-height: 1;&quot;&gt;&lt;span style=&quot;font-size:11px;&quot;&gt;&lt;span style=&quot;font-size:10px;color:#000000;font-weight: bold;font-family: Arimo;&quot;&gt;General Workload Domain Management vDS&lt;/span&gt;&lt;/span&gt;&lt;/div&gt;" style="strokeColor=none;fillColor=none;overflow=visible;whiteSpace=wrap;html=1;fontSize=11;whiteSpace=wrap;fontSize=11;align=right;spacing=0;verticalAlign=bottom;rounded=1;absoluteArcSize=1;arcSize=48;whiteSpace=wrap;fontSize=11;" parent="Wzx5845afE0IqANnSBGT-0" vertex="1">
          <mxGeometry x="0.011" y="0.031" width="489.5" height="161.33599999999998" relative="1" as="geometry" />
        </mxCell>
        <mxCell id="Wzx5845afE0IqANnSBGT-3" value="" style="group;html=1;" parent="UL6HkNOrxJcR1W0lbAR9-1" vertex="1">
          <mxGeometry x="570" y="407" width="232" height="174" as="geometry" />
        </mxCell>
        <mxCell id="Wzx5845afE0IqANnSBGT-4" value="" style="shape=stencil(nZBLDoAgDERP0z3SIyjew0SURgSD+Lu9kMZoXLhwN9O+tukAlrNpJg1SzDH4QW/URgNYgZTkjA4UkwJUgGXng+6DX1zLfmoymdXo17xh5zmRJ6Q42BWCfc2oJfdAr+Yv+AP9Cb7OJ3H/2JG1HNGz/84klThPVCc=);whiteSpace=wrap;overflow=block;html=1;fontSize=11;fillOpacity=100;fillColor=#bfbfbf;whiteSpace=wrap;fontSize=11;spacing=0;verticalAlign=top;rounded=1;absoluteArcSize=1;arcSize=24;" parent="Wzx5845afE0IqANnSBGT-3" vertex="1">
          <mxGeometry width="232" height="174" relative="1" as="geometry" />
        </mxCell>
        <mxCell id="Wzx5845afE0IqANnSBGT-5" value="Uplink2 (VLAN ID ALL)" style="strokeColor=none;fillColor=none;overflow=visible;whiteSpace=wrap;fontSize=10;fontFamily=Arimo;fontColor=#ffffff;fontStyle=1;align=center;whiteSpace=wrap;spacing=0;verticalAlign=top;fillOpacity=100;rounded=1;absoluteArcSize=1;arcSize=24;whiteSpace=wrap;" parent="Wzx5845afE0IqANnSBGT-3" vertex="1">
          <mxGeometry x="0.023" y="0.043" width="221.328" height="161.124" relative="1" as="geometry" />
        </mxCell>
        <mxCell id="Wzx5845afE0IqANnSBGT-6" value="" style="group;html=1;" parent="UL6HkNOrxJcR1W0lbAR9-1" vertex="1">
          <mxGeometry x="338" y="407" width="232" height="174" as="geometry" />
        </mxCell>
        <mxCell id="Wzx5845afE0IqANnSBGT-7" value="" style="shape=stencil(nZBLDoAgDERP0z3SIyjew0SURgSD+Lu9kMZoXLhwN9O+tukAlrNpJg1SzDH4QW/URgNYgZTkjA4UkwJUgGXng+6DX1zLfmoymdXo17xh5zmRJ6Q42BWCfc2oJfdAr+Yv+AP9Cb7OJ3H/2JG1HNGz/84klThPVCc=);whiteSpace=wrap;fontSize=11;fillOpacity=100;fillColor=#bfbfbf;whiteSpace=wrap;spacing=0;verticalAlign=top;rounded=1;absoluteArcSize=1;arcSize=24;" parent="Wzx5845afE0IqANnSBGT-6" vertex="1">
          <mxGeometry width="232" height="174" relative="1" as="geometry" />
        </mxCell>
        <mxCell id="Wzx5845afE0IqANnSBGT-8" value="Uplink1 (VLAN ID ALL)" style="strokeColor=none;fillColor=none;overflow=visible;whiteSpace=wrap;fontSize=10;fontFamily=Arimo;fontColor=#ffffff;fontStyle=1;align=center;whiteSpace=wrap;spacing=0;verticalAlign=top;fillOpacity=100;rounded=1;absoluteArcSize=1;arcSize=24;whiteSpace=wrap;" parent="Wzx5845afE0IqANnSBGT-6" vertex="1">
          <mxGeometry x="0.023" y="0.043" width="221.328" height="161.124" relative="1" as="geometry" />
        </mxCell>
        <mxCell id="Wzx5845afE0IqANnSBGT-9" value="" style="group;html=1;" parent="UL6HkNOrxJcR1W0lbAR9-1" vertex="1">
          <mxGeometry x="351" y="482" width="436" height="38" as="geometry" />
        </mxCell>
        <mxCell id="Wzx5845afE0IqANnSBGT-10" value="" style="shape=stencil(nZBLDoAgDERP0z3SIyjew0SURgSD+Lu9kMZoXLhwN9O+tukAlrNpJg1SzDH4QW/URgNYgZTkjA4UkwJUgGXng+6DX1zLfmoymdXo17xh5zmRJ6Q42BWCfc2oJfdAr+Yv+AP9Cb7OJ3H/2JG1HNGz/84klThPVCc=);whiteSpace=wrap;fontSize=11;fillColor=#205867;gradientColor=#ffffff;whiteSpace=wrap;spacing=0;rounded=1;absoluteArcSize=1;arcSize=24;" parent="Wzx5845afE0IqANnSBGT-9" vertex="1">
          <mxGeometry width="436" height="38" relative="1" as="geometry" />
        </mxCell>
        <mxCell id="Wzx5845afE0IqANnSBGT-11" value="vSphere vSAN Network (VLAN ID 300 &amp;&amp; 301, Tagged)" style="strokeColor=none;fillColor=none;overflow=visible;whiteSpace=wrap;fontSize=10;fontFamily=Arimo;fontColor=#ffffff;fontStyle=1;align=center;whiteSpace=wrap;spacing=0;rounded=1;absoluteArcSize=1;arcSize=24;whiteSpace=wrap;" parent="Wzx5845afE0IqANnSBGT-9" vertex="1">
          <mxGeometry x="0.012" y="0.139" width="425.536" height="27.436" relative="1" as="geometry" />
        </mxCell>
        <mxCell id="Wzx5845afE0IqANnSBGT-12" value="" style="group;html=1;" parent="UL6HkNOrxJcR1W0lbAR9-1" vertex="1">
          <mxGeometry x="351" y="520" width="436" height="38" as="geometry" />
        </mxCell>
        <mxCell id="Wzx5845afE0IqANnSBGT-13" value="" style="shape=stencil(nZBLDoAgDERP0z3SIyjew0SURgSD+Lu9kMZoXLhwN9O+tukAlrNpJg1SzDH4QW/URgNYgZTkjA4UkwJUgGXng+6DX1zLfmoymdXo17xh5zmRJ6Q42BWCfc2oJfdAr+Yv+AP9Cb7OJ3H/2JG1HNGz/84klThPVCc=);whiteSpace=wrap;fontSize=11;fillColor=#54426a;gradientColor=#ffffff;whiteSpace=wrap;spacing=0;rounded=1;absoluteArcSize=1;arcSize=24;" parent="Wzx5845afE0IqANnSBGT-12" vertex="1">
          <mxGeometry width="436" height="38" relative="1" as="geometry" />
        </mxCell>
        <mxCell id="Wzx5845afE0IqANnSBGT-14" value="vSphere vMotion Network (VLAN ID 400 &amp;&amp; 401, Tagged)" style="strokeColor=none;fillColor=none;overflow=visible;whiteSpace=wrap;fontSize=10;fontFamily=Arimo;fontColor=#ffffff;fontStyle=1;align=center;whiteSpace=wrap;spacing=0;rounded=1;absoluteArcSize=1;arcSize=24;whiteSpace=wrap;" parent="Wzx5845afE0IqANnSBGT-12" vertex="1">
          <mxGeometry x="0.012" y="0.139" width="425.536" height="27.436" relative="1" as="geometry" />
        </mxCell>
        <mxCell id="Wzx5845afE0IqANnSBGT-15" value="" style="group;html=1;" parent="UL6HkNOrxJcR1W0lbAR9-1" vertex="1">
          <mxGeometry x="351" y="444" width="436" height="38" as="geometry" />
        </mxCell>
        <mxCell id="Wzx5845afE0IqANnSBGT-16" value="" style="shape=stencil(nZBLDoAgDERP0z3SIyjew0SURgSD+Lu9kMZoXLhwN9O+tukAlrNpJg1SzDH4QW/URgNYgZTkjA4UkwJUgGXng+6DX1zLfmoymdXo17xh5zmRJ6Q42BWCfc2oJfdAr+Yv+AP9Cb7OJ3H/2JG1HNGz/84klThPVCc=);whiteSpace=wrap;fontSize=11;fillColor=#1f477d;gradientColor=#ffffff;whiteSpace=wrap;spacing=0;rounded=1;absoluteArcSize=1;arcSize=24;" parent="Wzx5845afE0IqANnSBGT-15" vertex="1">
          <mxGeometry width="436" height="38" relative="1" as="geometry" />
        </mxCell>
        <mxCell id="Wzx5845afE0IqANnSBGT-17" value="vSphere Host Provisioning Network (VLAN ID 600 &amp;&amp; 601, Untagged / No VLAN Required)" style="strokeColor=none;fillColor=none;overflow=visible;whiteSpace=wrap;fontSize=10;fontFamily=Arimo;fontColor=#ffffff;fontStyle=1;align=center;whiteSpace=wrap;spacing=0;rounded=1;absoluteArcSize=1;arcSize=24;whiteSpace=wrap;" parent="Wzx5845afE0IqANnSBGT-15" vertex="1">
          <mxGeometry x="0.012" y="0.139" width="425.536" height="27.436" relative="1" as="geometry" />
        </mxCell>
        <mxCell id="Wzx5845afE0IqANnSBGT-18" value="" style="group;html=1;" parent="UL6HkNOrxJcR1W0lbAR9-1" vertex="1">
          <mxGeometry x="954" y="434" width="500" height="178" as="geometry" />
        </mxCell>
        <mxCell id="Wzx5845afE0IqANnSBGT-19" value="" style="shape=stencil(nZBLDoAgDERP0z3SIyjew0SURgSD+Lu9kMZoXLhwN9O+tukAlrNpJg1SzDH4QW/URgNYgZTkjA4UkwJUgGXng+6DX1zLfmoymdXo17xh5zmRJ6Q42BWCfc2oJfdAr+Yv+AP9Cb7OJ3H/2JG1HNGz/84klThPVCc=);whiteSpace=wrap;fontSize=11;fillColor=#ffc000;gradientColor=#c00000;whiteSpace=wrap;align=right;spacing=0;verticalAlign=bottom;rounded=1;absoluteArcSize=1;arcSize=48;" parent="Wzx5845afE0IqANnSBGT-18" vertex="1">
          <mxGeometry width="500" height="178" relative="1" as="geometry" />
        </mxCell>
        <mxCell id="Wzx5845afE0IqANnSBGT-20" value="&lt;div style=&quot;display: flex; justify-content: center; text-align: center; align-items: baseline; font-size: 0; line-height: 1;&quot;&gt;&lt;span style=&quot;font-size:11px;&quot;&gt;&lt;span style=&quot;font-size:10px;color:#000000;font-weight: bold;font-family: Arimo;&quot;&gt;General Workload Domain (N-)vDS&lt;/span&gt;&lt;/span&gt;&lt;/div&gt;" style="strokeColor=none;fillColor=none;overflow=visible;whiteSpace=wrap;html=1;fontSize=11;whiteSpace=wrap;fontSize=11;align=right;spacing=0;verticalAlign=bottom;rounded=1;absoluteArcSize=1;arcSize=48;whiteSpace=wrap;fontSize=11;" parent="Wzx5845afE0IqANnSBGT-18" vertex="1">
          <mxGeometry x="0.011" y="0.017" width="489.5" height="172.126" relative="1" as="geometry" />
        </mxCell>
        <mxCell id="Wzx5845afE0IqANnSBGT-21" value="" style="group;html=1;" parent="UL6HkNOrxJcR1W0lbAR9-1" vertex="1">
          <mxGeometry x="1202" y="407" width="232" height="172" as="geometry" />
        </mxCell>
        <mxCell id="Wzx5845afE0IqANnSBGT-22" value="" style="shape=stencil(nZBLDoAgDERP0z3SIyjew0SURgSD+Lu9kMZoXLhwN9O+tukAlrNpJg1SzDH4QW/URgNYgZTkjA4UkwJUgGXng+6DX1zLfmoymdXo17xh5zmRJ6Q42BWCfc2oJfdAr+Yv+AP9Cb7OJ3H/2JG1HNGz/84klThPVCc=);whiteSpace=wrap;overflow=block;html=1;fontSize=11;fillOpacity=100;fillColor=#bfbfbf;whiteSpace=wrap;fontSize=11;spacing=0;verticalAlign=top;rounded=1;absoluteArcSize=1;arcSize=24;" parent="Wzx5845afE0IqANnSBGT-21" vertex="1">
          <mxGeometry width="232" height="172" relative="1" as="geometry" />
        </mxCell>
        <mxCell id="Wzx5845afE0IqANnSBGT-23" value="Uplink4 (VLAN ID ALL)" style="strokeColor=none;fillColor=none;overflow=visible;whiteSpace=wrap;fontSize=10;fontFamily=Arimo;fontColor=#ffffff;fontStyle=1;align=center;whiteSpace=wrap;spacing=0;verticalAlign=top;fillOpacity=100;rounded=1;absoluteArcSize=1;arcSize=24;whiteSpace=wrap;" parent="Wzx5845afE0IqANnSBGT-21" vertex="1">
          <mxGeometry x="0.023" y="0.023" width="221.328" height="165.12" relative="1" as="geometry" />
        </mxCell>
        <mxCell id="Wzx5845afE0IqANnSBGT-24" value="" style="group;html=1;" parent="UL6HkNOrxJcR1W0lbAR9-1" vertex="1">
          <mxGeometry x="970" y="407" width="232" height="172" as="geometry" />
        </mxCell>
        <mxCell id="Wzx5845afE0IqANnSBGT-25" value="" style="shape=stencil(nZBLDoAgDERP0z3SIyjew0SURgSD+Lu9kMZoXLhwN9O+tukAlrNpJg1SzDH4QW/URgNYgZTkjA4UkwJUgGXng+6DX1zLfmoymdXo17xh5zmRJ6Q42BWCfc2oJfdAr+Yv+AP9Cb7OJ3H/2JG1HNGz/84klThPVCc=);whiteSpace=wrap;fontSize=11;fillOpacity=100;fillColor=#bfbfbf;whiteSpace=wrap;spacing=0;verticalAlign=top;rounded=1;absoluteArcSize=1;arcSize=24;" parent="Wzx5845afE0IqANnSBGT-24" vertex="1">
          <mxGeometry width="232" height="172" relative="1" as="geometry" />
        </mxCell>
        <mxCell id="Wzx5845afE0IqANnSBGT-26" value="Uplink3 (VLAN ID ALL)" style="strokeColor=none;fillColor=none;overflow=visible;whiteSpace=wrap;fontSize=10;fontFamily=Arimo;fontColor=#ffffff;fontStyle=1;align=center;whiteSpace=wrap;spacing=0;verticalAlign=top;fillOpacity=100;rounded=1;absoluteArcSize=1;arcSize=24;whiteSpace=wrap;" parent="Wzx5845afE0IqANnSBGT-24" vertex="1">
          <mxGeometry x="0.023" y="0.023" width="221.328" height="165.12" relative="1" as="geometry" />
        </mxCell>
        <mxCell id="Wzx5845afE0IqANnSBGT-27" value="" style="group;html=1;" parent="UL6HkNOrxJcR1W0lbAR9-1" vertex="1">
          <mxGeometry x="983" y="444" width="436" height="38" as="geometry" />
        </mxCell>
        <mxCell id="Wzx5845afE0IqANnSBGT-28" value="" style="shape=stencil(nZBLDoAgDERP0z3SIyjew0SURgSD+Lu9kMZoXLhwN9O+tukAlrNpJg1SzDH4QW/URgNYgZTkjA4UkwJUgGXng+6DX1zLfmoymdXo17xh5zmRJ6Q42BWCfc2oJfdAr+Yv+AP9Cb7OJ3H/2JG1HNGz/84klThPVCc=);whiteSpace=wrap;fontSize=11;fillColor=#002060;gradientColor=#9c4a09;whiteSpace=wrap;spacing=0;rounded=1;absoluteArcSize=1;arcSize=24;" parent="Wzx5845afE0IqANnSBGT-27" vertex="1">
          <mxGeometry width="436" height="38" relative="1" as="geometry" />
        </mxCell>
        <mxCell id="Wzx5845afE0IqANnSBGT-29" value="vSphere Virtual Tunnel Endpoints (VLAN ID 200 &amp;&amp; 201, Tagged)" style="strokeColor=none;fillColor=none;overflow=visible;whiteSpace=wrap;fontSize=10;fontFamily=Arimo;fontColor=#ffffff;fontStyle=1;align=center;whiteSpace=wrap;spacing=0;rounded=1;absoluteArcSize=1;arcSize=24;whiteSpace=wrap;" parent="Wzx5845afE0IqANnSBGT-27" vertex="1">
          <mxGeometry x="0.012" y="0.139" width="425.536" height="27.436" relative="1" as="geometry" />
        </mxCell>
        <mxCell id="Wzx5845afE0IqANnSBGT-30" value="" style="group;html=1;" parent="UL6HkNOrxJcR1W0lbAR9-1" vertex="1">
          <mxGeometry x="982" y="519" width="436" height="38" as="geometry" />
        </mxCell>
        <mxCell id="Wzx5845afE0IqANnSBGT-31" value="" style="shape=stencil(nZBLDoAgDERP0z3SIyjew0SURgSD+Lu9kMZoXLhwN9O+tukAlrNpJg1SzDH4QW/URgNYgZTkjA4UkwJUgGXng+6DX1zLfmoymdXo17xh5zmRJ6Q42BWCfc2oJfdAr+Yv+AP9Cb7OJ3H/2JG1HNGz/84klThPVCc=);whiteSpace=wrap;fontSize=11;fillColor=#c00000;gradientColor=#ffffff;whiteSpace=wrap;spacing=0;rounded=1;absoluteArcSize=1;arcSize=24;" parent="Wzx5845afE0IqANnSBGT-30" vertex="1">
          <mxGeometry width="436" height="38" relative="1" as="geometry" />
        </mxCell>
        <mxCell id="Wzx5845afE0IqANnSBGT-32" value="Fabric Tenant Networks (VLAN IDs vary, Tagged)" style="strokeColor=none;fillColor=none;overflow=visible;whiteSpace=wrap;fontSize=10;fontFamily=Arimo;fontColor=#ffffff;fontStyle=1;align=center;whiteSpace=wrap;spacing=0;rounded=1;absoluteArcSize=1;arcSize=24;whiteSpace=wrap;" parent="Wzx5845afE0IqANnSBGT-30" vertex="1">
          <mxGeometry x="0.012" y="0.139" width="425.536" height="27.436" relative="1" as="geometry" />
        </mxCell>
        <mxCell id="Wzx5845afE0IqANnSBGT-33" value="" style="group;html=1;" parent="UL6HkNOrxJcR1W0lbAR9-1" vertex="1">
          <mxGeometry x="982" y="483" width="436" height="38" as="geometry" />
        </mxCell>
        <mxCell id="Wzx5845afE0IqANnSBGT-34" value="" style="shape=stencil(nZBLDoAgDERP0z3SIyjew0SURgSD+Lu9kMZoXLhwN9O+tukAlrNpJg1SzDH4QW/URgNYgZTkjA4UkwJUgGXng+6DX1zLfmoymdXo17xh5zmRJ6Q42BWCfc2oJfdAr+Yv+AP9Cb7OJ3H/2JG1HNGz/84klThPVCc=);whiteSpace=wrap;fontSize=11;fillColor=#50632a;gradientColor=#ea700d;whiteSpace=wrap;spacing=0;rounded=1;absoluteArcSize=1;arcSize=24;" parent="Wzx5845afE0IqANnSBGT-33" vertex="1">
          <mxGeometry width="436" height="38" relative="1" as="geometry" />
        </mxCell>
        <mxCell id="Wzx5845afE0IqANnSBGT-35" value="Virtual Fabric VNIs (VNI ID ALL)" style="strokeColor=none;fillColor=none;overflow=visible;whiteSpace=wrap;fontSize=10;fontFamily=Arimo;fontColor=#ffffff;fontStyle=1;align=center;whiteSpace=wrap;spacing=0;rounded=1;absoluteArcSize=1;arcSize=24;whiteSpace=wrap;" parent="Wzx5845afE0IqANnSBGT-33" vertex="1">
          <mxGeometry x="0.012" y="0.139" width="425.536" height="27.436" relative="1" as="geometry" />
        </mxCell>
        <UserObject label="" lucidchartObjectId="1_kTSNfPL8jb" id="Wzx5845afE0IqANnSBGT-84">
          <mxCell style="html=1;jettySize=18;whiteSpace=wrap;overflow=block;fontSize=11;strokeColor=#65b81b;strokeOpacity=100;strokeWidth=2;rounded=1;arcSize=10;startArrow=none;;endArrow=block;endFill=1;;entryX=0.5;entryY=-0.003;entryPerimeter=0;" parent="UL6HkNOrxJcR1W0lbAR9-1" target="Wzx5845afE0IqANnSBGT-6" edge="1" source="o-mJgyRYjWTcLhvHUd3R-0">
            <mxGeometry width="100" height="100" relative="1" as="geometry">
              <mxPoint x="560.0880000000002" y="151" as="sourcePoint" />
            </mxGeometry>
          </mxCell>
        </UserObject>
        <UserObject label="" lucidchartObjectId="e.kTqXP0uzuq" id="Wzx5845afE0IqANnSBGT-85">
          <mxCell style="html=1;jettySize=18;whiteSpace=wrap;overflow=block;fontSize=11;strokeColor=#ea700d;strokeOpacity=100;strokeWidth=2;rounded=1;arcSize=10;startArrow=none;;endArrow=block;endFill=1;;entryX=0.5;entryY=-0.003;entryPerimeter=0;" parent="UL6HkNOrxJcR1W0lbAR9-1" target="Wzx5845afE0IqANnSBGT-24" edge="1" source="o-mJgyRYjWTcLhvHUd3R-0">
            <mxGeometry width="100" height="100" relative="1" as="geometry">
              <mxPoint x="620.5889999999999" y="151" as="sourcePoint" />
            </mxGeometry>
          </mxCell>
        </UserObject>
        <UserObject label="" lucidchartObjectId="4.kTcViYCsOT" id="Wzx5845afE0IqANnSBGT-86">
          <mxCell style="html=1;jettySize=18;whiteSpace=wrap;overflow=block;fontSize=11;strokeColor=#65b81b;strokeOpacity=100;strokeWidth=2;rounded=1;arcSize=10;startArrow=none;;endArrow=block;endFill=1;;entryX=0.534;entryY=-0.003;entryPerimeter=0;" parent="UL6HkNOrxJcR1W0lbAR9-1" target="Wzx5845afE0IqANnSBGT-3" edge="1" source="o-mJgyRYjWTcLhvHUd3R-1">
            <mxGeometry width="100" height="100" relative="1" as="geometry">
              <mxPoint x="1108.475" y="151" as="sourcePoint" />
            </mxGeometry>
          </mxCell>
        </UserObject>
        <UserObject label="" lucidchartObjectId="9.kT-kiZA1V~" id="Wzx5845afE0IqANnSBGT-87">
          <mxCell style="html=1;jettySize=18;whiteSpace=wrap;overflow=block;fontSize=11;strokeColor=#ea700d;strokeOpacity=100;strokeWidth=2;rounded=1;arcSize=10;startArrow=none;;endArrow=block;endFill=1;;entryX=0.534;entryY=-0.003;entryPerimeter=0;" parent="UL6HkNOrxJcR1W0lbAR9-1" target="Wzx5845afE0IqANnSBGT-21" edge="1" source="o-mJgyRYjWTcLhvHUd3R-1">
            <mxGeometry width="100" height="100" relative="1" as="geometry">
              <mxPoint x="1170.395" y="149.95000000000005" as="sourcePoint" />
            </mxGeometry>
          </mxCell>
        </UserObject>
        <mxCell id="o-mJgyRYjWTcLhvHUd3R-0" value="" style="pointerEvents=1;shadow=0;dashed=0;html=1;strokeColor=none;fillColor=#434445;aspect=fixed;labelPosition=center;verticalLabelPosition=bottom;verticalAlign=top;align=center;outlineConnect=0;shape=mxgraph.vvd.physical_upstream_router;" vertex="1" parent="UL6HkNOrxJcR1W0lbAR9-1">
          <mxGeometry x="800" y="60" width="60" height="60" as="geometry" />
        </mxCell>
        <mxCell id="o-mJgyRYjWTcLhvHUd3R-1" value="" style="pointerEvents=1;shadow=0;dashed=0;html=1;strokeColor=none;fillColor=#434445;aspect=fixed;labelPosition=center;verticalLabelPosition=bottom;verticalAlign=top;align=center;outlineConnect=0;shape=mxgraph.vvd.physical_upstream_router;" vertex="1" parent="UL6HkNOrxJcR1W0lbAR9-1">
          <mxGeometry x="930" y="60" width="60" height="60" as="geometry" />
        </mxCell>
        <mxCell id="o-mJgyRYjWTcLhvHUd3R-2" value="&lt;b&gt;Zcs&amp;lt;city&amp;gt;&amp;lt;az&amp;gt;Leaf-1&lt;/b&gt;&lt;br&gt;AZ 1 ASN&lt;br&gt;iBGP Route Reflector Client&lt;br&gt;AFIs: IPv4-U, IPv6-U, EVPN" style="text;html=1;align=right;verticalAlign=middle;resizable=0;points=[];autosize=1;" vertex="1" parent="UL6HkNOrxJcR1W0lbAR9-1">
          <mxGeometry x="610" y="60" width="170" height="60" as="geometry" />
        </mxCell>
        <mxCell id="o-mJgyRYjWTcLhvHUd3R-3" value="&lt;b&gt;Zcs&amp;lt;city&amp;gt;&amp;lt;az&amp;gt;Leaf-2&lt;/b&gt;&lt;br&gt;AZ 1 ASN&lt;br&gt;iBGP Route Reflector Client&lt;br&gt;AFIs: IPv4-U, IPv6-U, EVPN" style="text;html=1;align=left;verticalAlign=middle;resizable=0;points=[];autosize=1;" vertex="1" parent="UL6HkNOrxJcR1W0lbAR9-1">
          <mxGeometry x="1000" y="60" width="170" height="60" as="geometry" />
        </mxCell>
      </root>
    </mxGraphModel>
  </diagram>
</mxfile>
